# xmcd
#
# Track frame offsets:
#	150
#	8429
#	26323
#	38435
#	59658
#	76789
#	101563
#	118636
#	136320
#	153157
#	168292
#	185183
#	208565
#	228541
#	252733
#
# Disc length: 3806 seconds
#
# Revision: 2
# Processed by: cddbd v1.5.1PL0 Copyright (c) Steve Scherf et al.
# Submitted via: Audio-CD-Archiv 4.00.518
#
DISCID=ba0edc0f
DTITLE=The Blues Band - Greenstuff
DYEAR=1900
DGENRE=blues
TTITLE0=unbekannt - Hey Hey Little Girl
TTITLE1=unbekannt - Greenstuff
TTITLE2=unbekannt - I Wanna Be Loved
TTITLE3=unbekannt - Back Door Man
TTITLE4=unbekannt - Death Letter
TTITLE5=unbekannt - Flat Foot Sam
TTITLE6=unbekannt - Can´t Be Satiesfied
TTITLE7=unbekannt - So Bad
TTITLE8=unbekannt - Rolling Log
TTITLE9=unbekannt - Twenty Nine Ways
TTITLE10=unbekannt - Going Home
TTITLE11=unbekannt - I Can´t Hold On Much Longer
TTITLE12=unbekannt - Boom Boom
TTITLE13=unbekannt - Treat Her Right 
TTITLE14=unbekannt - Maggie´s Farm
EXTD=
EXTT0=
EXTT1=
EXTT2=
EXTT3=
EXTT4=
EXTT5=
EXTT6=
EXTT7=
EXTT8=
EXTT9=
EXTT10=
EXTT11=
EXTT12=
EXTT13=
EXTT14=
PLAYORDER=
